/* XPM */
static char *_be7cc565bc642dc9ac5aa1075a4cbc6ekYIpddTE7OHuSYs[] = {
/* columns rows colors chars-per-pixel */
"64 64 236 2 ",
"   c #140E0C",
".  c #17110E",
"X  c #1C1513",
"o  c #1B1513",
"O  c #211714",
"+  c #231916",
"@  c #261C19",
"#  c #2B1E1A",
"$  c #281A16",
"%  c #311F1B",
"&  c #2D211D",
"*  c #33231E",
"=  c #39251F",
"-  c #3F281F",
";  c #2D2422",
":  c #342521",
">  c #3A2621",
",  c #352924",
"<  c #3C2A24",
"1  c #3C2D29",
"2  c #342B29",
"3  c #3D312D",
"4  c #3D3532",
"5  c #40261F",
"6  c #432C25",
"7  c #4A2D26",
"8  c #432E29",
"9  c #4A2F29",
"0  c #402622",
"q  c #4B3126",
"w  c #44312B",
"e  c #4B332B",
"r  c #4C362C",
"t  c #53342C",
"y  c #59362C",
"u  c #53392E",
"i  c #5A392E",
"p  c #503227",
"a  c #443631",
"s  c #4C3631",
"d  c #4C3A34",
"f  c #493C38",
"g  c #533630",
"h  c #543B33",
"j  c #5B3C33",
"k  c #543E39",
"l  c #5D3F39",
"z  c #593630",
"x  c #502F29",
"c  c #633D34",
"v  c #613F38",
"b  c #693E36",
"n  c #613A2F",
"m  c #4D423D",
"M  c #5C4035",
"N  c #55423C",
"B  c #5C433B",
"V  c #594439",
"C  c #644136",
"Z  c #6B4336",
"A  c #64433B",
"S  c #6B453B",
"D  c #65493E",
"F  c #6C4A3D",
"G  c #72463B",
"H  c #744A3D",
"J  c #7A4C3D",
"K  c #734736",
"L  c #7B503E",
"P  c #4F4643",
"I  c #554541",
"U  c #5C4741",
"Y  c #5C4943",
"T  c #5C4E4A",
"R  c #564945",
"E  c #5D524F",
"W  c #644640",
"Q  c #634B43",
"!  c #6B4B43",
"~  c #624E49",
"^  c #6C4A43",
"/  c #744D42",
"(  c #7B4D42",
")  c #754F48",
"_  c #6E5246",
"`  c #64524C",
"'  c #6D534C",
"]  c #745144",
"[  c #7C5244",
"{  c #73534A",
"}  c #7C554A",
"|  c #7D594C",
" . c #75594C",
".. c #6D5A54",
"X. c #675752",
"o. c #745B54",
"O. c #7C5C53",
"+. c #7B5F59",
"@. c #745852",
"#. c #6B615D",
"$. c #74615B",
"%. c #7C635B",
"&. c #7D675A",
"*. c #7C6B65",
"=. c #776C69",
"-. c #824F3F",
";. c #83523F",
":. c #835444",
">. c #895644",
",. c #845946",
"<. c #8A5A46",
"1. c #83564A",
"2. c #895649",
"3. c #845A4C",
"4. c #8B5C4C",
"5. c #915E4A",
"6. c #935E46",
"7. c #835D52",
"8. c #8B5E51",
"9. c #935F51",
"0. c #804F41",
"q. c #8D624E",
"w. c #94624C",
"e. c #9B664D",
"r. c #9D694F",
"t. c #846354",
"y. c #8C6354",
"u. c #82635B",
"i. c #8B645B",
"p. c #8C695D",
"a. c #876A5B",
"s. c #936453",
"d. c #946955",
"f. c #9C6B54",
"g. c #91665A",
"h. c #946B5C",
"j. c #9B6C5C",
"k. c #986654",
"l. c #99725C",
"z. c #A26C53",
"x. c #A36E59",
"c. c #A4735C",
"v. c #AB755B",
"b. c #A6745A",
"n. c #856A62",
"m. c #8B6C62",
"M. c #846C66",
"N. c #946C63",
"B. c #9B6E62",
"V. c #8D7164",
"C. c #8C7269",
"Z. c #84726C",
"A. c #957264",
"S. c #9C7264",
"D. c #94746B",
"F. c #9C746A",
"G. c #9B7A6D",
"H. c #95796C",
"J. c #8C7A73",
"K. c #8D7E7B",
"L. c #947B72",
"P. c #987A72",
"I. c #A47464",
"U. c #A47B66",
"Y. c #AB7B63",
"T. c #A3766A",
"R. c #A57B6D",
"E. c #AC7C6C",
"W. c #A97667",
"Q. c #B07E67",
"!. c #A47C71",
"~. c #AB7E72",
"^. c #9C8174",
"/. c #978379",
"(. c #8A807E",
"). c #AC826B",
"_. c #B3846A",
"`. c #B7866A",
"'. c #AE8174",
"]. c #A68578",
"[. c #B38373",
"{. c #BA8B73",
"}. c #B3857A",
"|. c #B38B7C",
" X c #BB8A7C",
".X c #B88775",
"XX c #AA927C",
"oX c #BD917D",
"OX c #C08D7B",
"+X c #C4957A",
"@X c #988A85",
"#X c #A88C84",
"$X c #B68D83",
"%X c #A99489",
"&X c #B79588",
"*X c #AA9A94",
"=X c #BB9D94",
"-X c #B59A93",
";X c #BFA08C",
":X c #ACA19A",
">X c #B3A39C",
",X c #BCA397",
"<X c #BAAAA6",
"1X c #BFB1A8",
"2X c #CB9C8C",
"3X c #C69885",
"4X c #C69D93",
"5X c #D19F8D",
"6X c #CBA38C",
"7X c #D1A48B",
"8X c #C8A799",
"9X c #D6A997",
"0X c #D9B49A",
"qX c #D8B08F",
"wX c #E2BC9D",
"eX c #CAABA3",
"rX c #D4ACA3",
"tX c #C2B1A8",
"yX c #DBB5AA",
"uX c #DAB6A6",
"iX c #DBBBB3",
"pX c #D5BBB5",
"aX c #C5B5B2",
"sX c #E2B8A8",
"dX c #E4BDB4",
"fX c #E7C5A9",
"gX c #E8C6B8",
"hX c #F1CBB7",
"jX c #F5D5BC",
"kX c #EDD3BB",
"lX c #D0C0BA",
"zX c #F5CDC1",
"xX c #F8D7C5",
"cX c #EACDC3",
"vX c #FDE2C8",
"bX c #D6C8C3",
/* pixels */
"+ 8 j M j z r 6 6 8 j l p 0 6 p r 1 : & * = , % : & . : > $ < g j u p 9 6 , 6 y y 6 > 6 7 w 2 : & # * * # : & X * % & s j j c t ",
"9 g B F l , 8 w k d a , , 6 z t S S A / h $ + < t j S b 0 9 z ^ { D , s s d w a 1 < w j y H S F ] M # + 0 l ^ ) S 0 x g A ^ 8 < ",
"t C b [ } g v ^ } +.O.v k z S S ( 0.4.K M g % > / 0.( G x z ) 7.j.8.g v v v z W v k z S S J :.>.K l g * 0 8.B.7.^ x z b G 8.j j ",
"S ( ( j b 1 x l D.~.N.S s v 5.:.K Z G c z D :.b n n b ^ x v B.~.m.} 1 e 9 v ^ S l 8 S 9.( S Z Z c z D :.) N.F.i.( g b 1.v b g , ",
"s h e % * + X m Z.K.X.1 X : 9 0 = O O O 8 8 9 g % O $ $ # 8 *.#XZ.U # o # : # # + o : 6 > % X X O 8 < 8 ~ *.=.X.1 > 6 9 = * ; o ",
"7 0 H z > 8 g N.-X>X=.7.W 9 O : : x c b 9 0 0 y 6 # 9 n c W P.dXeXn.W g S g 0 g b A w $ 0 > p b S 9 0 9 i.#X>X&X7.b > c v p e 0 ",
"g t ( ( ( ( s.3XiXdXyX~.k.} :.( 6 b ( G t t c K j x 0 ^ 2.F.4XzXzX4XB.0.( l l ( / 0.( 1.( 8 Z J G t y ( }.rXdX4X~.8.n / ( ( 0.( ",
"g 8 x b :.2.W.2XpXpXhX~.8.2.( ( s b G G 5.5.2.G g ( ( z ^ 7.-XyXdXrXE.4.b z z ( G S :.( ( s S Z ( 5.9.I.3XeXzXgX!.} 9 x n 0.2.2.",
", & = 7 6 < ~ %XtX<X<XM.k < , > 1 = - t j u 9 % # 9 , X 1 +.%XtXeX%XT w w < , , > : > > = 1 = = 9 g s ~ Z.:X1X-X#.f = % 9 6 > % ",
"i S ,.[ Z u G.iXcXdXiXP.U l n t L Z i y 7 : # O k ^ g 6 f $XgXjXzXdXn.} } F G C 8 < h c i J K c n 7 8 E (.pXcXpX/.P ^ ) / 0.g g ",
"Z H <.:.J ! }.rXpXcXxXuXB.C >.K J :.K J c e / / b b ^ b ~ $XgXzXzXdXP.g.S v H ,.>.S i >.K J ;.J ( b l }.dXdXdXcX8X@.) ( [ :.v b ",
">.H C C Z @.oXgXzXcXxXcX|.S >.;.K >.;.J C B ) { ^ U W ^ o.2XdXiXyXyX].h.,.<.} 3.f.:.p >.J K <.;.J b X.&XiXdXiXbXeXM.2.b c c l S ",
"* + * > 1 V /.:X1X1X1X%X&.3 < w = * e e 8 1 w : # w w h o./.*X*X<X:XJ.' V r q q 8 8 # = w * & q 9 w Y Z.@X*X<XaX*X&.d * = > < r ",
"@ * :.f.f.).0XkXiXgXpX6XA.{ 6 t h & H / } 3.D h 0 4.5.c.+X4XeXjXvXxX0XoXl.S L C C i C 7 y j > ] / | R.&XeX,XxXxXhX3X_ F e.w.<.4.",
"h h <.z.r.{.0XhXuXfXvXjX6Xv.w.K D A S ( H 3.F C p J 5.Y.$XsXyXhXvXjX0X3Xf.K H r.r.6.w.<.K D A S H S F.&XyX8XgXjXkX3Xh.[ r.e.<.w.",
"B h q y H &./.8XeX,XjXfX6X).<.K w y y 8 * * s j # < z ] n.&X=X*X8XtX/.+.S C q w.6.<.6.L K q q r < , R P.,X@X%X8X-XD. .M p Z i u ",
"# , + + ; f #.%X*X@X:X%XV.V V r V u r & + & = M r $ @ 4 X.=.@X@X@XK.#.T D r , q u 6 * r M M V u * , T M.,X:X/.@XK.#.U , + @ . o ",
"9 e v C W u.6XgXjXvXkXjX;X .f.f.d.f.q.q & Z M K i 5 y ] n.&X4X8XeX8X#X+X_.b.v.e.z.,.t w.f.q.d.,.r < S.|.8X=X%X;X&XC.u.W A z w S ",
"v v G S O.A.6X&X%XeXfX0XXXh.w.d.K Z J ;.M Z L y [ L e.Q.m.#XrXrX8XrX&X[. .w Z ,.L C Z w.q.Z Z J w.F A.3X&XuXfXhXsXC.u.8.b S v K ",
"A ) j B ' n.a.%X@X=.(.Z.H.t.F < r q C <.M 6 ;.K <.,.,.S.%.Z.&X-X=X%X/.'  .u   # $ q y q - q 7 i <.D  .;X;XeXuX8X6XM.+.{ k v s 0 ",
"p & 6 r { C./.%X#X/.%X@X/.*.U 8 - r Z C M M M M = 7 B o.C.P.J.#X%X-X#X^.a.V 3 h m V V s e < t F D  .V.XXXXJ.#X$X#X^...h s t j M ",
"b.C C q.`.6XfXfX8X=X9XrX8X|.N.1.M K r.r.v.v.z.;.y S x..X3X5X&X5XsXfX0XqX+X3.A [ ,.t.,.} [ v J e.r.+XqX0XqXXX4XsXsX9XT.3.>.w.z.f.",
";.H L w.c.[.].|.$X$X}.~.[.W.N.0.C H L Z K <.v.6.z S s.W.~.3X&X7X9X9X6XR.p.H n n y b H J J C H 0.K t..X0X9X#X3X7X2XOXG.y.w.;.:.Z ",
"p M M r B ' E $.XXJ.P.D.%.' } C q q q q O O p n e 9 8 W D.D.J.].H.C.#.T B F < 7 5 = 6 z c 0 0 > w 2 m &.G.L.P.*.*.G.u.] p 6 = & ",
"C K C  .a.&.^.^.J.J.*.Z.H.T m 8 < : : : ; 6 6 9 9 : 8 I ` H.].#X;X*X^.^.O.B r = 6 M ; < , 3 1 1 8 f 7.N.P.L.M.*.n.+.p.t._ F r M ",
"w.w.6.).{.R.7X6X+X&XR.m.].M.O._ D D v D 9 b ( ( ( G / B.m. X7X6XfXqX|.+X`.q.K M 7 Z V A A D ^ ^ 7.~ F.~.3X3X$X}.$XD.[.E.b.v.K <.",
";.<.L w.l.S. XqXwX0XwX7X).*.g.{ ^ ^ l A 6 c -.J :.2.k.E.i.[.5X3X6X+X].{.+X`.z.v.e.Z d ! ^ / W z ^ I B. X X3X2X2X3XD.[.c.q.;.C J ",
"q M r *  .Y a.^.XXXX%XXXV.R T a < 8 # + $ : 7 6 9 j ) 7...%.V.Z.E C.#.&.&.| F F F q # < , , < @ # 4 ~ *.7.M.H.P.N.+.+. .= 6 - - ",
"u - z D ' a.$.T R &.].H.C.&.B s 8 e z y A C j M 8 6 W O.u.u.%.!.!.H.D.%.m & 6 C M C j 7 e w t v W i.N.F.!.M.n.H.H.N.@.~ D r u r ",
"K M F ,.h.S.'.'.A.^.2X2XoXR.g.( H S ( Z [ [ C H b S 9.B.T.R.!.'.|. X'.'.l.F M q.4.[ ] H Z S S J ( g.~.F.~.!.~. X}.~.N.8.3.H Z H ",
"Z Z K [ g.p.T.!.].!.'.!.T.A.U.3.S H >.H C F H C c S 8.N.N.F.~.'.~.}.F.T.l.t.F K C l F 4.( S H >.:.7.T.~.R.D.~.~.~.T.g.g.[ H C b ",
"M M r h Q m ~ +.n.u.M.+.` o.p./ 7 * < < w w C y 6 < s Q ' %.A.n.O.%.R T ~ B q 6 = # 7 Z i 6 & = w Y @.m.m.o...X.@.+.u.{ l w * $ ",
": : z d k T ~ o.@.R P @.o.U ; : # = 6 6 0 * % 9 % # k W ' ~ @.C.%...o.X.' k # X 6 8 :   $ % 0 9 l I I I 7...` u.+.+.I ^ k 0 0 ; ",
"c g 2.9.8.N.B.}.D.C.F. X XD.i.} 7 b ( ( z x n ( z z ^ B.E.T.N.3X}.~.T.F.I.} v S :.2.( ^ / 7 b 0.4.W _ i.T.N.m.i.~.~.i.B.g.G S b ",
"t x b 0.W.}.}.W.N.D.3XT.~.~.W.s.9 G ( b ( ( 0.b z ( 1.g.B.N.i.B.W. XOX XB.{ ^ 1.G / 1.>.0.9 / J [ j.W.~.W.n.~.~.T.B.7.1.) 2.2.9.",
"6 # : v ^ {  .u.$...m.u.u.O.~ A w 8 9 b ( / b x ; v ^ s U ~ Y @.+.u.@.' ) k 8 g 9 e r e 9 1 6 0 ! a.N.m.@.~ n.u.R ' I s v x g 9 ",
"9 z F ] { N O.C.C.u.+.T P ~ A e C e 7 7 0 @ X   8 U d a f 7.m.D.G.N.~ 7.n.O.v 8 & & w q 6 Z y p l j f f 4 +.C.' R P } O.) S 0 0 ",
"b / 4.j.g.O.B.B.N.T.}.T.i.7.c.:.>.>.G G n 9 v l S ) 7.} U g.W.[._.~.u.N.8.} 1.1.J C i ;.K :.;.K >.[ _ m.m.N.F.T.i.~ g.B.9.8.l b ",
">.( [ 4.y.7.I.W.R.R. X3X).| v.q.H >.;.;.^ v 1.1.^ ^ 7.i. .d.I.W.I.S.m.I.B.h.7.2.f.[ y <.J J <.<.4.3.+.!.~.F.D.P.D.7.j.s.4.( W ^ ",
"t 6 * w d U _ %.m.n.a.N.n.N ] D q y i i 8 1 s 8 1 s R R I Q Q Y U Y ~ ' {  .A l C M * y u 6 p u A B R ' E E X...X.~ W d s > < 9 ",
"X O S y.d.a.S.A.&.a. ._ Q Y w V w X A M D ! M w * ,.q.d.l. .~ A.].U.G.U.d. .F q q 6 q * q w O A ' t.a.a.' B ).R.T.l.B _ t.[ H L ",
"w w 6._.v.).{.{.y.)._.).Y.c.q.H A j J ] [ y.^ C r <.c._.Y.S.y._.+X{.).`.).| ,.w.w.;.;.J C D C J y.y.h.g.a. .E.`..XT.t.d.`.z.w.w.",
"^ B Z 4.d.d.d.d.d.t.+X+X`.).v.w.j C C i r u A A = C 4.y.3.i.t.t.l.S.p.p.q.| Z b.z.e.z.w.;.u M M A h D %.u.B { h.h.y.%.} q.<.H L ",
": , + ; 2 ; & m B r  . ._ _ B V w 1 < & O o * 1 & @ , 1 3 3 f 3 3 3 2 , a M & r u p p q r r - < , ; 2 m Y m 4 a 4 f w 3 & & o   ",
"0 e s W d k | ).).G.l.G.a.h d.l.d.d.[ 6 & C p [ Z 1 r h l ~ ) ' o.~ Q d.U.U.d.[ w.K 6 L q.d.d.q.h 2 | ] l.| B Q W I _ B B e , y ",
"g x G / ] ] l.t.a._._._.l.] f.).L L L Z 6 Z K p n Z 4.,.l { } i.7.7. .f. .] d.e.w.F C w.r.H L H [ j } 4.F | y.j.s.W ^ } ] C h J ",
") 3.F {  ._ S [ V 3 ! V ] } q.D A p K z.K p e.K z.f.b.c.A B y.O.u.+.{ A ] s & q - M M K M M p K b.] F c.s._._.Y.c.Q { 7.! H h y ",
"8 , w d d V a Q Y 3 a a N N r , = < r M r - M u 6 u N h w a s N U B Q N D V & * * w q = & * 6 u D V V D D V Y Q B k a w N w w < ",
"w.y c 3.l.b.{.).t.O.l.F.G.A.i.3.j G w.f.f.z.e.<.p Z s.h.j.d.{ 1.l.).U.`._.| D ,.t.i.O.} } z H f.b.v._.).j.S 3.j.I.W.} H ,.4.w.f.",
"w.F K d.f.e.d.d.|  .( ] 3.y.3.1.C H >.H w.z.z.<.i S k.s.3.8.} s.c.b.f.d.d.] Z n n G J H H C H >.L d.b._.c.^ } c.k.8.} [ s.w.w.[ ",
"C C K Z C M 1 r L V F M l D 8.:.j n b z * < J L y c j C } / F } F S M w t F r y 7 7 y H J t z b M , w [ ,.Q ^ l W 1.! / K M p 6 ",
"q u t V M 3 a r V m a M s , 1 3 : # + # O $ & = : ; ; & < h V B _ B r m r N 1 * < 7 @ * : * @ # : * , 1 s d 8 , , 8 N V V r = = ",
"w.e.w.v.b.| b.y.} [ h N 3.~ Q ^ v W l v 9 b G J G v j ^ z 8.k.d.{.).q.z.d.L F q 7 F N B v l W ^ { d ( 2.8.3./ ^ ] C q.l.f.v.H q.",
";.,.,.f.d.F e.b.b.f.d.,.F U { ) ^ D v W 8 c 0.J :.:.:.4.j :.k.s.b.d.L w.b.z.w.w.J i h D D ^ ^ v { r G 2.2.9.s.4.5.M q.q.d.w.C J ",
"C H C q H r H d.b.l.b.b.] w ^ B k k 6 > # 9 c y c ( [ ( g A [ ^ q F r L q.d.q.e.w.c : h g d s , : : h D A / } } ( j H [ r M p y ",
"- = q w r 3 < & & r V N s 8 1 : & < < < 8 e w e * : e w 8 8 1 h m V a 3 & & < r q 8 6 : : : < 7 w h h h k 8 w s h s 2 q q 6 - * ",
"H j G 2.2./ ) W u D h.d.s.1./ S S S J G :.:.S J v b ( 1./ G S 1.,.,.} } S g A 4.4.1.[ S S S S J / 4.4.H 3.G / 1.1.( S ^ :.( S H ",
"b b S G ( S ( [ ^ F } [ / ) 4./ S H :.S v / C c b b / ) S ^ / ) / } ^ [ ( S C G G Z S >.H Z H :.G ^ ( / ^ ^ / ( ( D S G S G C b ",
"S D v g c < 9 l A M D j 8 B 4./ y 9 y y h h H S e e 9 z g j S j t y & 8 j B t g 6 : h :.F p 6 p y h l ( S g g s g j W ^ z y 6 > ",
"= = 9 , : , : 8 1 & + 1 < , X $ $ % : : : * % 6 % O < < : w T #.` m E f 6 < + * : = # o + # * > 6 8 , : s > & 6 8 6 : r < : : $ ",
"z t 4.0.S b A 1.^ z l 3.3./ A S 7 c J ( y 7 y G g 6 w ( ( H.1XpXbX<XaXP.( W z / ( 1.G C S 7 b 0.} z g b ( v g t ( 1.j 2.3.b b z ",
"t e b / 5.9.9./ v ^ 8.( 1.4.8.3.9 G J S b G K G z G c / ( ) @.n.( B.B.s.[ v l 1.S H 1.1.( 8 G J G G ( ( / l / ^ / / j S b 1.2.9.",
"8 % 0 y b l v v g d ^ v C S c l w e y S 4.4.( i , b S 0 7 6 * 7 z j g z j w 6 j t h l z z a e x S 3.3.] z 1 S S < 9 , 0 z z c z ",
"6 e g h e * 8 N g s 8 , ; < < * h 6 > 6 > + +   , s : X # r h A A h : s A l 9 < & # = > * h 7 6 8 6 # $ . w k : @ & e h j g : * "
};
